<?xml version="1.0" standalone="no"?>
<!DOCTYPE svg PUBLIC "-//W3C//DTD SVG 20010904//EN" "http://www.w3.org/TR/2001/REC-SVG-20010904/DTD/svg10.dtd">
<svg xmlns="http://www.w3.org/2000/svg" version="1.0" width="1791" height="1097" viewBox="0 0 1791.000000 1097.000000" preserveAspectRatio="xMidYMid meet">

<g transform="translate(0.000000,1097.000000) scale(0.100000,-0.100000)" fill="#000000" stroke="none">
<path d="M7258 10965 c-4 -6 -15 -51 -25 -100 -25 -127 -25 -494 0 -650 28 -177 81 -398 176 -741 175 -632 204 -793 205 -1139 1 -189 -3 -260 -17 -334 -10 -52 -16 -96 -13 -98 8 -8 119 181 172 292 102 212 140 375 131 555 -10 185 -44 293 -209 660 -216 482 -288 694 -352 1040 -23 122 -52 365 -58 480 -2 25 -6 40 -10 35z"/>
<path d="M7035 9693 c-21 -54 -67 -186 -102 -293 -287 -862 -265 -1400 65 -1653 59 -45 121 -81 128 -75 2 3 -10 67 -27 144 -95 431 -106 736 -48 1369 19 220 37 605 27 605 -3 0 -22 -44 -43 -97z"/>
<path d="M7275 7601 c6 -4 185 -77 400 -161 214 -84 747 -294 1185 -467 1705 -675 2235 -875 2875 -1086 573 -189 1001 -299 1425 -367 427 -68 934 -68 1303 0 627 115 1244 397 2059 941 261 175 476 325 530 373 103 90 188 220 223 341 24 80 17 214 -13 271 -27 54 -100 118 -160 141 -45 17 -231 18 -4942 21 -2762 1 -4890 -2 -4885 -7z m9659 -291 c55 -61 47 -118 -26 -186 -39 -37 -760 -566 -867 -636 -129 -85 -191 -88 -258 -15 -130 141 -180 353 -124 519 53 158 213 313 358 347 21 5 228 9 459 10 l422 1 36 -40z"/>
<path d="M4455 6175 c-1047 -92 -1968 -458 -2825 -1125 -224 -175 -421 -350 -660 -590 -317 -316 -549 -584 -837 -963 l-134 -178 70 -78 c39 -43 126 -132 194 -197 1126 -1089 2786 -1735 4762 -1854 231 -14 877 -14 1110 0 802 48 1495 164 2267 379 1391 388 2496 622 3418 725 405 45 509 51 950 51 347 0 454 -3 585 -18 1116 -128 1806 -547 2351 -1430 105 -169 268 -484 369 -712 36 -82 71 -154 76 -160 6 -5 -3 22 -19 60 -17 39 -247 581 -512 1205 -265 624 -500 1182 -522 1239 -135 358 -116 565 75 806 40 51 530 518 1400 1338 736 692 1336 1262 1333 1264 -11 11 -355 -247 -771 -577 -551 -437 -741 -579 -1009 -755 -664 -435 -1325 -677 -2056 -751 -147 -15 -171 -15 -322 0 -700 71 -1469 247 -2372 543 -451 148 -788 268 -1686 603 -813 303 -1145 422 -1590 571 -1031 344 -1775 517 -2559 595 -221 22 -874 27 -1086 9z m2123 -960 c393 -50 842 -170 1322 -355 96 -37 1041 -385 2100 -775 1059 -390 1928 -711 1933 -715 4 -4 -127 -48 -290 -98 -1762 -540 -3506 -848 -5413 -957 -451 -25 -773 -35 -1377 -42 l-583 -6 0 169 c0 758 113 1382 329 1829 289 597 743 906 1421 969 90 8 438 -3 558 -19z"/>
</g>
</svg>